<mxfile host="Electron" modified="2025-02-21T02:51:29.985Z" agent="Mozilla/5.0 (Windows NT 10.0; Win64; x64) AppleWebKit/537.36 (KHTML, like Gecko) draw.io/24.1.0 Chrome/120.0.6099.109 Electron/28.1.0 Safari/537.36" etag="YjvZ75L8UXYUDUfprvqB" version="24.1.0" type="device">
  <diagram name="Page-1" id="SE0Pd3vN2Rl-mlT4ESwE">
    <mxGraphModel dx="2163" dy="776" grid="1" gridSize="10" guides="1" tooltips="1" connect="1" arrows="1" fold="1" page="1" pageScale="1" pageWidth="850" pageHeight="1100" math="0" shadow="0">
      <root>
        <mxCell id="0" />
        <mxCell id="1" parent="0" />
        <mxCell id="UxKhiTpBqrd-aujqjKo_-1" value="Input:&lt;br&gt;- The input is any tree" style="text;html=1;align=left;verticalAlign=top;whiteSpace=wrap;rounded=0;" parent="1" vertex="1">
          <mxGeometry x="40" y="120" width="250" height="120" as="geometry" />
        </mxCell>
        <mxCell id="UxKhiTpBqrd-aujqjKo_-2" value="Ouput:&lt;br&gt;- We imagine that, we are stading at right side of tree, and we must return all nodes which we see its." style="text;html=1;align=left;verticalAlign=top;whiteSpace=wrap;rounded=0;" parent="1" vertex="1">
          <mxGeometry x="480" y="120" width="250" height="120" as="geometry" />
        </mxCell>
        <mxCell id="UxKhiTpBqrd-aujqjKo_-3" value="" style="endArrow=classic;html=1;rounded=0;exitX=1;exitY=0.5;exitDx=0;exitDy=0;" parent="1" source="UxKhiTpBqrd-aujqjKo_-1" target="UxKhiTpBqrd-aujqjKo_-2" edge="1">
          <mxGeometry width="50" height="50" relative="1" as="geometry">
            <mxPoint x="400" y="350" as="sourcePoint" />
            <mxPoint x="450" y="300" as="targetPoint" />
          </mxGeometry>
        </mxCell>
        <mxCell id="UxKhiTpBqrd-aujqjKo_-6" value="1" style="ellipse;whiteSpace=wrap;html=1;aspect=fixed;" parent="1" vertex="1">
          <mxGeometry x="120" y="280" width="40" height="40" as="geometry" />
        </mxCell>
        <mxCell id="UxKhiTpBqrd-aujqjKo_-7" value="2" style="ellipse;whiteSpace=wrap;html=1;aspect=fixed;" parent="1" vertex="1">
          <mxGeometry x="90" y="360" width="40" height="40" as="geometry" />
        </mxCell>
        <mxCell id="UxKhiTpBqrd-aujqjKo_-8" value="4" style="ellipse;whiteSpace=wrap;html=1;aspect=fixed;" parent="1" vertex="1">
          <mxGeometry x="60" y="440" width="40" height="40" as="geometry" />
        </mxCell>
        <mxCell id="UxKhiTpBqrd-aujqjKo_-9" value="5" style="ellipse;whiteSpace=wrap;html=1;aspect=fixed;" parent="1" vertex="1">
          <mxGeometry x="40" y="530" width="40" height="40" as="geometry" />
        </mxCell>
        <mxCell id="UxKhiTpBqrd-aujqjKo_-11" value="" style="endArrow=none;html=1;rounded=0;exitX=0.5;exitY=1;exitDx=0;exitDy=0;entryX=1;entryY=0;entryDx=0;entryDy=0;" parent="1" source="UxKhiTpBqrd-aujqjKo_-6" target="UxKhiTpBqrd-aujqjKo_-7" edge="1">
          <mxGeometry width="50" height="50" relative="1" as="geometry">
            <mxPoint x="410" y="450" as="sourcePoint" />
            <mxPoint x="460" y="400" as="targetPoint" />
          </mxGeometry>
        </mxCell>
        <mxCell id="UxKhiTpBqrd-aujqjKo_-12" value="" style="endArrow=none;html=1;rounded=0;exitX=0.34;exitY=1.08;exitDx=0;exitDy=0;exitPerimeter=0;" parent="1" source="UxKhiTpBqrd-aujqjKo_-7" target="UxKhiTpBqrd-aujqjKo_-8" edge="1">
          <mxGeometry width="50" height="50" relative="1" as="geometry">
            <mxPoint x="410" y="450" as="sourcePoint" />
            <mxPoint x="460" y="400" as="targetPoint" />
          </mxGeometry>
        </mxCell>
        <mxCell id="UxKhiTpBqrd-aujqjKo_-22" value="" style="endArrow=classic;html=1;rounded=0;exitX=1;exitY=0.75;exitDx=0;exitDy=0;" parent="1" target="UxKhiTpBqrd-aujqjKo_-24" edge="1">
          <mxGeometry width="50" height="50" relative="1" as="geometry">
            <mxPoint x="180" y="577.5" as="sourcePoint" />
            <mxPoint x="500" y="578" as="targetPoint" />
          </mxGeometry>
        </mxCell>
        <mxCell id="UxKhiTpBqrd-aujqjKo_-24" value="-&amp;nbsp; How to we can solve it?&lt;div&gt;&lt;br&gt;&lt;/div&gt;&lt;div&gt;1) BFS&lt;/div&gt;&lt;div&gt;*** logic:&lt;br&gt;- Each node on tree, Is it right pointer?&lt;/div&gt;&lt;div&gt;So we can use the bfs algothirm to scan and push all nodes have right pointer is null into the output results, it is same for the left side.&lt;/div&gt;&lt;div&gt;And with bfs for each node we must check both the level of it with the level of the next right pointer, if they are diff we will push current node to results array.&lt;/div&gt;" style="text;html=1;align=left;verticalAlign=top;whiteSpace=wrap;rounded=0;" parent="1" vertex="1">
          <mxGeometry x="530" y="520" width="370" height="120" as="geometry" />
        </mxCell>
        <mxCell id="K_zMh34Fm9PPAj3cajvh-1" value="3" style="ellipse;whiteSpace=wrap;html=1;aspect=fixed;" vertex="1" parent="1">
          <mxGeometry x="200" y="360" width="40" height="40" as="geometry" />
        </mxCell>
        <mxCell id="K_zMh34Fm9PPAj3cajvh-2" value="" style="endArrow=none;html=1;rounded=0;entryX=1;entryY=1;entryDx=0;entryDy=0;exitX=0;exitY=0;exitDx=0;exitDy=0;" edge="1" parent="1" source="K_zMh34Fm9PPAj3cajvh-1" target="UxKhiTpBqrd-aujqjKo_-6">
          <mxGeometry width="50" height="50" relative="1" as="geometry">
            <mxPoint x="350" y="450" as="sourcePoint" />
            <mxPoint x="400" y="400" as="targetPoint" />
          </mxGeometry>
        </mxCell>
        <mxCell id="K_zMh34Fm9PPAj3cajvh-3" value="" style="endArrow=none;html=1;rounded=0;exitX=0.5;exitY=0;exitDx=0;exitDy=0;entryX=0.5;entryY=1;entryDx=0;entryDy=0;" edge="1" parent="1" source="UxKhiTpBqrd-aujqjKo_-9" target="UxKhiTpBqrd-aujqjKo_-8">
          <mxGeometry width="50" height="50" relative="1" as="geometry">
            <mxPoint x="350" y="450" as="sourcePoint" />
            <mxPoint x="400" y="400" as="targetPoint" />
          </mxGeometry>
        </mxCell>
        <mxCell id="K_zMh34Fm9PPAj3cajvh-4" value="Right Side" style="shape=umlActor;verticalLabelPosition=bottom;verticalAlign=top;html=1;outlineConnect=0;" vertex="1" parent="1">
          <mxGeometry x="650" y="360" width="30" height="60" as="geometry" />
        </mxCell>
        <mxCell id="K_zMh34Fm9PPAj3cajvh-5" value="Left Side" style="shape=umlActor;verticalLabelPosition=bottom;verticalAlign=top;html=1;outlineConnect=0;" vertex="1" parent="1">
          <mxGeometry x="-120" y="360" width="30" height="60" as="geometry" />
        </mxCell>
        <mxCell id="K_zMh34Fm9PPAj3cajvh-6" value="" style="endArrow=classic;html=1;rounded=0;exitX=1;exitY=0.5;exitDx=0;exitDy=0;entryX=0;entryY=0.5;entryDx=0;entryDy=0;" edge="1" parent="1" source="UxKhiTpBqrd-aujqjKo_-7" target="K_zMh34Fm9PPAj3cajvh-1">
          <mxGeometry width="50" height="50" relative="1" as="geometry">
            <mxPoint x="490" y="450" as="sourcePoint" />
            <mxPoint x="540" y="400" as="targetPoint" />
          </mxGeometry>
        </mxCell>
        <mxCell id="K_zMh34Fm9PPAj3cajvh-7" value="" style="endArrow=none;html=1;rounded=0;" edge="1" parent="1">
          <mxGeometry width="50" height="50" relative="1" as="geometry">
            <mxPoint y="310" as="sourcePoint" />
            <mxPoint x="540" y="310" as="targetPoint" />
          </mxGeometry>
        </mxCell>
        <mxCell id="K_zMh34Fm9PPAj3cajvh-8" value="Level 1" style="edgeLabel;html=1;align=center;verticalAlign=middle;resizable=0;points=[];" vertex="1" connectable="0" parent="K_zMh34Fm9PPAj3cajvh-7">
          <mxGeometry x="0.5306" relative="1" as="geometry">
            <mxPoint x="-1" as="offset" />
          </mxGeometry>
        </mxCell>
        <mxCell id="K_zMh34Fm9PPAj3cajvh-9" value="" style="endArrow=none;html=1;rounded=0;" edge="1" parent="1">
          <mxGeometry width="50" height="50" relative="1" as="geometry">
            <mxPoint x="11" y="390" as="sourcePoint" />
            <mxPoint x="551" y="390" as="targetPoint" />
          </mxGeometry>
        </mxCell>
        <mxCell id="K_zMh34Fm9PPAj3cajvh-10" value="Level 2" style="edgeLabel;html=1;align=center;verticalAlign=middle;resizable=0;points=[];" vertex="1" connectable="0" parent="K_zMh34Fm9PPAj3cajvh-9">
          <mxGeometry x="0.5306" relative="1" as="geometry">
            <mxPoint x="-1" as="offset" />
          </mxGeometry>
        </mxCell>
        <mxCell id="K_zMh34Fm9PPAj3cajvh-11" value="" style="endArrow=none;html=1;rounded=0;" edge="1" parent="1">
          <mxGeometry width="50" height="50" relative="1" as="geometry">
            <mxPoint x="21" y="470" as="sourcePoint" />
            <mxPoint x="561" y="470" as="targetPoint" />
          </mxGeometry>
        </mxCell>
        <mxCell id="K_zMh34Fm9PPAj3cajvh-12" value="Level 3" style="edgeLabel;html=1;align=center;verticalAlign=middle;resizable=0;points=[];" vertex="1" connectable="0" parent="K_zMh34Fm9PPAj3cajvh-11">
          <mxGeometry x="0.5306" relative="1" as="geometry">
            <mxPoint x="-1" as="offset" />
          </mxGeometry>
        </mxCell>
        <mxCell id="K_zMh34Fm9PPAj3cajvh-13" value="" style="endArrow=none;html=1;rounded=0;" edge="1" parent="1">
          <mxGeometry width="50" height="50" relative="1" as="geometry">
            <mxPoint x="-60" y="560" as="sourcePoint" />
            <mxPoint x="480" y="560" as="targetPoint" />
          </mxGeometry>
        </mxCell>
        <mxCell id="K_zMh34Fm9PPAj3cajvh-15" value="Level 4" style="edgeLabel;html=1;align=center;verticalAlign=middle;resizable=0;points=[];" vertex="1" connectable="0" parent="K_zMh34Fm9PPAj3cajvh-13">
          <mxGeometry x="0.5352" y="1" relative="1" as="geometry">
            <mxPoint x="-1" as="offset" />
          </mxGeometry>
        </mxCell>
        <mxCell id="K_zMh34Fm9PPAj3cajvh-16" value="" style="endArrow=classic;html=1;rounded=0;exitX=1;exitY=0.5;exitDx=0;exitDy=0;" edge="1" parent="1" source="UxKhiTpBqrd-aujqjKo_-6">
          <mxGeometry width="50" height="50" relative="1" as="geometry">
            <mxPoint x="140" y="390" as="sourcePoint" />
            <mxPoint x="260" y="300" as="targetPoint" />
          </mxGeometry>
        </mxCell>
        <mxCell id="K_zMh34Fm9PPAj3cajvh-18" value="" style="endArrow=classic;html=1;rounded=0;exitX=1;exitY=0.5;exitDx=0;exitDy=0;entryX=0;entryY=0.5;entryDx=0;entryDy=0;" edge="1" parent="1">
          <mxGeometry width="50" height="50" relative="1" as="geometry">
            <mxPoint x="240" y="379.38" as="sourcePoint" />
            <mxPoint x="310" y="379.38" as="targetPoint" />
          </mxGeometry>
        </mxCell>
        <mxCell id="K_zMh34Fm9PPAj3cajvh-19" value="" style="endArrow=classic;html=1;rounded=0;exitX=1;exitY=0.5;exitDx=0;exitDy=0;entryX=0;entryY=0.5;entryDx=0;entryDy=0;" edge="1" parent="1">
          <mxGeometry width="50" height="50" relative="1" as="geometry">
            <mxPoint x="100" y="459.37" as="sourcePoint" />
            <mxPoint x="170" y="459.37" as="targetPoint" />
          </mxGeometry>
        </mxCell>
        <mxCell id="K_zMh34Fm9PPAj3cajvh-20" value="" style="endArrow=classic;html=1;rounded=0;exitX=1;exitY=0.5;exitDx=0;exitDy=0;entryX=0;entryY=0.5;entryDx=0;entryDy=0;" edge="1" parent="1">
          <mxGeometry width="50" height="50" relative="1" as="geometry">
            <mxPoint x="80" y="550" as="sourcePoint" />
            <mxPoint x="150" y="550" as="targetPoint" />
          </mxGeometry>
        </mxCell>
        <mxCell id="K_zMh34Fm9PPAj3cajvh-24" value="NULL" style="text;html=1;align=center;verticalAlign=middle;whiteSpace=wrap;rounded=0;" vertex="1" parent="1">
          <mxGeometry x="250" y="270" width="60" height="30" as="geometry" />
        </mxCell>
        <mxCell id="K_zMh34Fm9PPAj3cajvh-29" value="NULL" style="text;html=1;align=center;verticalAlign=middle;whiteSpace=wrap;rounded=0;" vertex="1" parent="1">
          <mxGeometry x="300" y="360" width="60" height="30" as="geometry" />
        </mxCell>
        <mxCell id="K_zMh34Fm9PPAj3cajvh-30" value="NULL" style="text;html=1;align=center;verticalAlign=middle;whiteSpace=wrap;rounded=0;" vertex="1" parent="1">
          <mxGeometry x="170" y="440" width="60" height="30" as="geometry" />
        </mxCell>
        <mxCell id="K_zMh34Fm9PPAj3cajvh-31" value="NULL" style="text;html=1;align=center;verticalAlign=middle;whiteSpace=wrap;rounded=0;" vertex="1" parent="1">
          <mxGeometry x="140" y="530" width="60" height="30" as="geometry" />
        </mxCell>
      </root>
    </mxGraphModel>
  </diagram>
</mxfile>
